<?xml version="1.0" standalone="no"?>
<!DOCTYPE svg PUBLIC "-//W3C//DTD SVG 20010904//EN"
 "http://www.w3.org/TR/2001/REC-SVG-20010904/DTD/svg10.dtd">
<svg version="1.0" xmlns="http://www.w3.org/2000/svg"
 width="512.000000pt" height="512.000000pt" viewBox="0 0 512.000000 512.000000"
 preserveAspectRatio="xMidYMid meet">
<metadata>
Created by potrace 1.14, written by Peter Selinger 2001-2017
</metadata>
<g transform="translate(0.000000,512.000000) scale(0.100000,-0.100000)"
fill="#000000" stroke="none">
<path d="M2345 5110 c-502 -46 -961 -227 -1365 -538 -126 -97 -363 -340 -461
-472 -121 -163 -171 -244 -254 -415 -125 -256 -191 -466 -236 -755 -33 -207
-33 -533 0 -740 45 -289 111 -499 236 -755 131 -268 269 -460 489 -681 221
-220 413 -358 681 -489 256 -125 466 -191 755 -236 207 -33 533 -33 739 0 287
45 496 109 747 231 718 346 1239 1017 1393 1791 38 195 46 280 45 509 0 181
-5 253 -23 370 -45 288 -111 499 -236 755 -131 268 -269 460 -489 681 -221
220 -413 358 -681 489 -255 125 -470 192 -750 235 -157 24 -445 34 -590 20z
m1458 -1264 c78 -18 112 -44 271 -206 150 -152 175 -193 183 -294 4 -47 0 -75
-17 -121 -21 -58 -54 -92 -952 -991 -672 -673 -943 -938 -977 -955 -38 -20
-61 -24 -131 -24 -73 0 -92 4 -135 27 -36 19 -198 175 -592 570 -593 594 -582
581 -590 708 -4 51 0 78 18 125 19 53 40 79 173 212 178 179 222 206 337 205
126 0 140 -11 484 -359 l304 -308 683 681 c459 459 697 689 725 703 81 40 132
47 216 27z"/>
</g>
</svg>
